<svg width="15" height="15" viewBox="0 0 15 15" fill="none" xmlns="http://www.w3.org/2000/svg">
<g id="fluent-mdl2:account-management" clip-path="url(#clip0_2720_334)">
<path id="Vector" d="M8.4082 8.4375C8.00293 8.13477 7.56592 7.90283 7.09717 7.7417C6.62842 7.58057 6.1377 7.5 5.625 7.5C5.19531 7.5 4.78027 7.55615 4.37988 7.66846C3.97949 7.78076 3.60596 7.93701 3.25928 8.13721C2.9126 8.3374 2.59766 8.58154 2.31445 8.86963C2.03125 9.15771 1.78711 9.4751 1.58203 9.82178C1.37695 10.1685 1.21826 10.542 1.10596 10.9424C0.993652 11.3428 0.9375 11.7578 0.9375 12.1875H0C0 11.6016 0.0854492 11.0376 0.256348 10.4956C0.427246 9.95361 0.673828 9.45312 0.996094 8.99414C1.31836 8.53516 1.69922 8.12744 2.13867 7.771C2.57812 7.41455 3.07617 7.13379 3.63281 6.92871C3.35938 6.75781 3.11523 6.55762 2.90039 6.32812C2.68555 6.09863 2.5 5.84473 2.34375 5.56641C2.1875 5.28809 2.07275 4.99756 1.99951 4.69482C1.92627 4.39209 1.88477 4.07715 1.875 3.75C1.875 3.23242 1.97266 2.74658 2.16797 2.29248C2.36328 1.83838 2.63184 1.44287 2.97363 1.10596C3.31543 0.769043 3.71338 0.500488 4.16748 0.300293C4.62158 0.100098 5.10742 0 5.625 0C6.14258 0 6.62842 0.0976563 7.08252 0.292969C7.53662 0.488281 7.93213 0.756836 8.26904 1.09863C8.60596 1.44043 8.87451 1.83838 9.07471 2.29248C9.2749 2.74658 9.375 3.23242 9.375 3.75C9.375 4.07227 9.33594 4.38721 9.25781 4.69482C9.17969 5.00244 9.0625 5.29297 8.90625 5.56641C8.75 5.83984 8.56445 6.09131 8.34961 6.3208C8.13477 6.55029 7.88818 6.75293 7.60986 6.92871C7.90283 7.04102 8.17871 7.17285 8.4375 7.32422V8.4375H8.4082ZM2.8125 3.75C2.8125 4.14062 2.88574 4.50439 3.03223 4.84131C3.17871 5.17822 3.37891 5.47607 3.63281 5.73486C3.88672 5.99365 4.18457 6.19629 4.52637 6.34277C4.86816 6.48926 5.23438 6.5625 5.625 6.5625C6.01074 6.5625 6.37451 6.48926 6.71631 6.34277C7.05811 6.19629 7.35596 5.99609 7.60986 5.74219C7.86377 5.48828 8.06641 5.19043 8.21777 4.84863C8.36914 4.50684 8.44238 4.14062 8.4375 3.75C8.4375 3.36426 8.36426 3.00049 8.21777 2.65869C8.07129 2.31689 7.87109 2.01904 7.61719 1.76514C7.36328 1.51123 7.06299 1.30859 6.71631 1.15723C6.36963 1.00586 6.00586 0.932617 5.625 0.9375C5.23438 0.9375 4.87061 1.01074 4.53369 1.15723C4.19678 1.30371 3.89893 1.50391 3.64014 1.75781C3.38135 2.01172 3.17871 2.31201 3.03223 2.65869C2.88574 3.00537 2.8125 3.36914 2.8125 3.75ZM15 9.375V15H7.5V9.375H9.375V7.5H13.125V9.375H15ZM10.3125 9.375H12.1875V8.4375H10.3125V9.375ZM14.0625 12.1875H13.125V13.125H12.1875V12.1875H10.3125V13.125H9.375V12.1875H8.4375V14.0625H14.0625V12.1875ZM14.0625 10.3125H8.4375V11.25H14.0625V10.3125Z" fill="#7A7A7A"/>
</g>
<defs>
<clipPath id="clip0_2720_334">
<rect width="15" height="15" fill="white"/>
</clipPath>
</defs>
</svg>
